HIERARCHY
ROOT Hips
{
  OFFSET 0 89.5177 0.535
  CHANNELS 6 Xposition Yposition Zposition Zrotation Xrotation Yrotation
  JOINT Spine
  {
    OFFSET 12.0259 -0.162855 1.69034e-005
    CHANNELS 3 Zrotation Xrotation Yrotation
    JOINT Spine1
    {
      OFFSET 15.3169 -0.0121922 0
      CHANNELS 3 Zrotation Xrotation Yrotation
      JOINT Spine2
      {
        OFFSET 15.3176 -0.0121908 0
        CHANNELS 3 Zrotation Xrotation Yrotation
        JOINT Neck
        {
          OFFSET 19.9142 1.56338 0
          CHANNELS 3 Zrotation Xrotation Yrotation
          JOINT Head
          {
            OFFSET 6.92651 0 0
            CHANNELS 3 Zrotation Xrotation Yrotation
            End Site
            {
              OFFSET 20.7666 0 0
            }
          }
          JOINT LeftShoulder
          {
            OFFSET -6.20654 0.708824 7.28219
            CHANNELS 3 Zrotation Xrotation Yrotation
            JOINT LeftArm
            {
              OFFSET 14.108 0 -1.52588e-005
              CHANNELS 3 Zrotation Xrotation Yrotation
              JOINT LeftForeArm
              {
                OFFSET 28.5802 0 0
                CHANNELS 3 Zrotation Xrotation Yrotation
                JOINT LeftHand
                {
                  OFFSET 27.092 0 0
                  CHANNELS 3 Zrotation Xrotation Yrotation
                  End Site
                  {
                    OFFSET 9.55928 -0.186424 0.145352
                  }
                }
              }
            }
          }
          JOINT RightShoulder
          {
            OFFSET -6.20654 0.708866 -7.28218
            CHANNELS 3 Zrotation Xrotation Yrotation
            JOINT RightArm
            {
              OFFSET 14.108 0 1.52588e-005
              CHANNELS 3 Zrotation Xrotation Yrotation
              JOINT RightForeArm
              {
                OFFSET 28.5802 0 0
                CHANNELS 3 Zrotation Xrotation Yrotation
                JOINT RightHand
                {
                  OFFSET 27.092 0 0
                  CHANNELS 3 Zrotation Xrotation Yrotation
                  End Site
                  {
                    OFFSET 9.55929 -0.186417 -0.145354
                  }
                }
              }
            }
          }
        }
      }
    }
  }
  JOINT LeftUpLeg
  {
    OFFSET 0.005 -0.535 8.837
    CHANNELS 3 Zrotation Xrotation Yrotation
    JOINT LeftLeg
    {
      OFFSET 39.9035 0 0
      CHANNELS 3 Zrotation Xrotation Yrotation
      JOINT LeftFoot
      {
        OFFSET 39.6689 0 0
        CHANNELS 3 Zrotation Xrotation Yrotation
        JOINT LeftToe
        {
          OFFSET 10.1624 13.6296 0
          CHANNELS 3 Zrotation Xrotation Yrotation
          End Site
          {
            OFFSET 8.38147 0 0
          }
        }
      }
    }
  }
  JOINT RightUpLeg
  {
    OFFSET 0.005 -0.535 -8.837
    CHANNELS 3 Zrotation Xrotation Yrotation
    JOINT RightLeg
    {
      OFFSET 39.9035 0 0
      CHANNELS 3 Zrotation Xrotation Yrotation
      JOINT RightFoot
      {
        OFFSET 39.6689 0 0
        CHANNELS 3 Zrotation Xrotation Yrotation
        JOINT RightToe
        {
          OFFSET 10.1624 13.6296 0
          CHANNELS 3 Zrotation Xrotation Yrotation
          End Site
          {
            OFFSET 8.38147 0 0
          }
        }
      }
    }
  }
}
MOTION
Frames:	6
Frame Time:	0.0333333
91.0324 85.7092 234.478 -109.762 -53.2005 157.802 2.81011 -2.43591 0.303676 5.64072 -4.85346 0.727758 5.64072 -4.85346 0.727749 -8.3043e-012 -9.0191e-006 -5.27751e-005 -2.47312 -2.82146 0.981656 -173.534 -21.2576 -72.642 -26.3649 -4.05691 52.6496 -27.374 -9.54166e-015 -3.18055e-015 -26.5662 -60.7585 -30.6101 -177.512 9.15759 74.7316 107.941 41.9797 -112.135 -2.44858e-006 -3.18055e-015 6.36111e-015 -27.3875 70.6032 28.7311 -10.8893 20.0467 -179.373 -8.34474 0 1.19271e-015 -6.88368 -17.2169 155.753 90 -7.15625e-015 -1.59028e-015 -41.8943 -22.4433 172.739 -47.7199 -3.18056e-015 1.59028e-015 12.5407 -7.60659 10.9131 90 -1.59028e-015 -6.36111e-015 
90.9194 86.1749 236.022 -109.471 -52.3744 158.354 2.63508 -2.35005 0.303019 5.28921 -4.68314 0.71499 5.28921 -4.68314 0.71498 -8.30589e-012 -9.0191e-006 -5.27751e-005 -1.87477 -2.37121 1.51552 -173.363 -21.3614 -72.2836 -26.1305 1.76785 53.4886 -28.9173 0 1.59028e-015 -24.408 -61.3355 -28.3714 -177.487 9.40709 74.9673 112.472 41.6796 -115.784 -2.39371e-006 9.54166e-015 6.36111e-015 -26.4536 70.4793 27.7686 -12.0637 20.096 -179.001 -8.47838 0 -0 -7.59601 -17.76 154.848 90 1.19271e-015 -0 -38.7647 -19.2375 171.726 -48.415 6.36111e-015 1.11319e-014 12.3681 -6.74146 9.77753 90 -2.98177e-016 6.36111e-015 
90.8221 86.4119 237.547 -109.121 -51.6712 159.118 2.50177 -2.27471 0.258129 5.01969 -4.53545 0.616336 5.01969 -4.53545 0.616327 -8.3043e-012 -9.0191e-006 -5.27751e-005 -1.78478 -2.2984 2.10154 -173.24 -21.4248 -72.0214 -25.5382 6.16775 54.6623 -29.5394 3.18055e-015 1.59028e-015 -21.893 -61.0601 -25.7048 -177.482 9.59535 75.2226 116.939 40.7301 -119.256 -2.33912e-006 1.59028e-015 -0 -26.0064 70.2854 27.3004 -13.0155 20.318 -178.793 -8.5247 -4.77083e-015 -0 -8.25584 -18.1612 154.175 90 -3.97569e-015 -0 -35.6424 -16.8447 170.41 -49.0437 6.36111e-015 -6.36111e-015 12.4351 -4.69986 6.89495 90 7.95139e-016 -3.18055e-015 
90.7829 86.4881 239.008 -108.499 -50.9211 160.277 2.40473 -2.16934 0.165965 4.82091 -4.3293 0.423541 4.82091 -4.3293 0.423531 -8.30907e-012 -9.0191e-006 -5.27751e-005 -1.77836 -2.58355 2.51064 -173.072 -21.4271 -71.6029 -24.7561 9.21577 55.7713 -29.0324 0 -1.59028e-015 -19.2033 -60.7788 -22.8694 -177.478 9.70925 75.3624 120.563 39.3984 -122.078 -2.2848e-006 -4.77083e-015 1.59028e-015 -25.4772 70.0655 26.7473 -13.6598 20.8714 -178.701 -8.53822 0 7.95139e-016 -8.77993 -18.3746 153.814 90 1.59028e-015 -0 -32.297 -14.9611 168.936 -49.1053 6.36111e-015 3.18056e-015 12.517 -2.68185 4.06781 90 -4.77083e-015 3.18055e-015 
90.7866 86.4558 240.412 -107.768 -50.2037 161.711 2.32642 -2.06804 0.0343362 4.65865 -4.1325 0.153 4.65865 -4.1325 0.152991 -8.30112e-012 -9.0191e-006 -5.27751e-005 -1.90763 -3.00987 2.74519 -172.828 -21.496 -71.0479 -23.5116 10.6285 56.6479 -27.287 0 -2.38542e-015 -17.5201 -59.8767 -21.0585 -177.463 9.80466 75.414 122.658 38.2223 -124.089 -2.23079e-006 -3.18055e-015 -3.18055e-015 -24.6421 69.8836 25.8843 -14.0549 21.4157 -178.797 -8.54097 0 -0 -9.35899 -18.6245 153.394 90 -1.59028e-015 -0 -28.9518 -13.3557 167.285 -48.6953 9.54167e-015 6.36111e-015 12.1856 -0.928782 1.62916 90 6.36111e-015 -1.59028e-014 
90.7916 86.3301 241.864 -107.215 -49.4051 163.085 2.24459 -1.93713 -0.0994302 4.48967 -3.87619 -0.122784 4.48967 -3.87619 -0.122794 -8.30271e-012 -9.0191e-006 -5.27751e-005 -2.20793 -3.45042 2.73973 -172.594 -21.5385 -70.5039 -21.6495 10.4124 57.3657 -24.7005 -3.18055e-015 2.12451e-015 -16.4807 -58.7084 -19.9057 -177.467 9.8946 75.5651 123.997 37.0217 -125.41 -2.17708e-006 -4.77083e-015 3.18055e-015 -23.8681 69.5548 25.0766 -14.5782 22.0097 -178.933 -8.53081 0 -7.95139e-016 -10.2141 -18.9074 152.93 90 5.56597e-015 -1.59028e-015 -26.1563 -12.0868 165.598 -48.1506 0 -6.36111e-015 12.2145 0.524564 -0.359851 90 6.36111e-015 3.18055e-015 
